Coordinates
version=1
nRows=17
nColumns=24
inDegrees=yes

Units are S.I. units (second, meters, Newtons, ...)
Angles are in degrees.

endheader
time	pelvis_tilt	pelvis_list	pelvis_rotation	pelvis_tx	pelvis_ty	pelvis_tz	hip_flexion_r	hip_adduction_r	hip_rotation_r	knee_angle_r	ankle_angle_r	subtalar_angle_r	mtp_angle_r	hip_flexion_l	hip_adduction_l	hip_rotation_l	knee_angle_l	ankle_angle_l	subtalar_angle_l	mtp_angle_l	lumbar_extension	lumbar_bending	lumbar_rotation
      8.95000000	      3.67939576	      0.77923701	     -0.48008197	     -1.15289997	      0.87324089	      0.18263626	    -19.09459284	      3.64721264	     11.91415993	     -8.29257648	     17.71123706	     -3.20915642	      0.00000000	     17.46233952	      3.85915037	     -7.25167479	      1.11091899	      6.34678465	      3.09615264	      0.00000000	    -25.56272279	     -1.61858785	     -1.60265508
      8.96000000	      3.85333503	      0.97628573	     -0.41666135	     -1.14088656	      0.87263648	      0.18190489	    -19.50839978	      3.47881173	     11.73442520	     -9.49292960	     17.49958545	     -2.67878638	      0.00000000	     17.33125375	      4.19143236	     -6.45526072	      0.42189921	      6.43418125	      3.23245984	      0.00000000	    -25.72584879	     -1.91835696	     -1.66989187
      8.97000000	      3.91319631	      1.26852452	     -0.30149498	     -1.12849199	      0.87200602	      0.18106324	    -19.73362665	      3.22754009	     11.26093253	    -10.84422259	     17.26863687	     -1.89682019	      0.00000000	     17.29647174	      4.63449797	     -5.41091445	     -0.54313601	      6.21691578	      2.76592065	      0.00000000	    -25.67230892	     -2.31401262	     -1.79805092
      8.98000000	      3.98811957	      1.56319089	     -0.13395289	     -1.11586298	      0.87155027	      0.18017069	    -19.88321999	      2.99361808	     10.50089284	    -12.36502809	     16.81462272	     -1.00381771	      0.00000000	     17.22999016	      5.09372908	     -4.19022708	     -1.72431121	      5.83215155	      2.01075473	      0.00000000	    -25.60035686	     -2.70654443	     -1.96175000
      8.99000000	      4.06996128	      1.90560638	      0.07589017	     -1.10307225	      0.87131431	      0.17915716	    -19.92732106	      2.70096269	      9.45252073	    -14.07893524	     16.22258080	      0.17337505	      0.00000000	     17.14506228	      5.63095750	     -2.80615988	     -3.05702568	      5.11067064	      0.89950105	      0.00000000	    -25.52414973	     -3.13974965	     -2.11930089
      9.00000000	      4.17513786	      2.24650472	      0.28843571	     -1.09015142	      0.87134591	      0.17809507	    -19.85331587	      2.38644926	      8.16401031	    -16.01232029	     15.29446470	      1.39329426	      0.00000000	     16.99887685	      6.19068113	     -1.13967318	     -4.44265059	      4.11884759	     -0.67170454	      0.00000000	    -25.46207915	     -3.56672495	     -2.29857007
      9.01000000	      4.28632896	      2.64936882	      0.56118995	     -1.07705583	      0.87164603	      0.17691240	    -19.64219775	      1.97349316	      6.51247925	    -18.16499856	     14.07051177	      2.80483948	      0.00000000	     16.83672568	      6.85491404	      0.56453315	     -5.89781962	      3.00372214	     -2.19520334	      0.00000000	    -25.38489871	     -4.04716260	     -2.52698908
      9.02000000	      4.40625957	      3.08101436	      0.86944827	     -1.06391333	      0.87219274	      0.17562835	    -19.26920080	      1.47395628	      4.62578506	    -20.56322413	     12.49996768	      4.28913110	      0.00000000	     16.67064553	      7.58899848	      2.26712556	     -7.41488776	      1.88625528	     -3.68744810	      0.00000000	    -25.32219714	     -4.53978349	     -2.80710211
      9.03000000	      4.54096980	      3.48235399	      1.16262537	     -1.05085874	      0.87298081	      0.17427159	    -18.71728435	      0.92140077	      2.69396096	    -23.21129790	     10.51540082	      5.73774586	      0.00000000	     16.47297019	      8.32426785	      4.01528948	     -8.93268828	      0.82332954	     -5.24860814	      0.00000000	    -25.30457609	     -4.96941825	     -3.04481585
      9.04000000	      4.67818446	      3.85632794	      1.42226223	     -1.03794707	      0.87390619	      0.17289229	    -17.96375461	      0.30968567	      0.84330325	    -26.11327111	      8.15040949	      7.03689852	      0.00000000	     16.24907081	      9.05721257	      5.72419171	    -10.42659221	     -0.05010880	     -6.82416233	      0.00000000	    -25.32074299	     -5.35417183	     -3.25200914
      9.05000000	      4.80190712	      4.21017450	      1.63710833	     -1.02523913	      0.87489590	      0.17149752	    -16.98973908	     -0.38430363	     -0.88400122	    -29.25505561	      5.49928181	      8.28109819	      0.00000000	     16.01443352	      9.78099743	      7.17355893	    -11.87779183	     -0.61727310	     -8.16981911	      0.00000000	    -25.36018477	     -5.69572702	     -3.41183394
      9.06000000	      4.87866919	      4.55383365	      1.78088490	     -1.01265791	      0.87585570	      0.17019597	    -15.78956634	     -1.12812185	     -2.33913196	    -32.55543332	      2.47195843	      8.97662288	      0.00000000	     15.71245307	     10.50190837	      8.64350816	    -13.12692330	     -1.03698087	     -9.81294951	      0.00000000	    -25.33799715	     -6.03107007	     -3.56360839
      9.07000000	      4.95158714	      4.88541758	      1.80703712	     -1.00037443	      0.87675645	      0.16896809	    -14.37794939	     -1.96121628	     -3.55977584	    -36.04256074	     -0.64973179	      9.48323055	      0.00000000	     15.32909641	     11.18890074	      9.83506132	    -14.19295235	     -1.10697861	    -11.34437764	      0.00000000	    -25.35348989	     -6.34470171	     -3.63286459
      9.08000000	      4.97403843	      5.26359772	      1.73226006	     -0.98835213	      0.87754699	      0.16786404	    -12.73546899	     -2.91206784	     -4.54417546	    -39.64892799	     -3.79847765	      9.63516567	      0.00000000	     14.88947719	     11.88892544	     10.75593208	    -15.02085899	     -0.95093458	    -12.75733509	      0.00000000	    -25.33604930	     -6.71996332	     -3.68143937
      9.09000000	      4.95769291	      5.69918014	      1.54656362	     -0.97661811	      0.87822821	      0.16687088	    -10.89224761	     -3.98097547	     -5.28974757	    -43.31754537	     -6.82122123	      9.42584571	      0.00000000	     14.37016173	     12.60408794	     11.45752878	    -15.57456256	     -0.62174955	    -14.07352571	      0.00000000	    -25.30597742	     -7.16411559	     -3.71286867
      9.10000000	      4.96065059	      6.22332925	      1.25313243	     -0.96512851	      0.87891630	      0.16606801	     -8.94903802	     -5.15806363	     -5.77611476	    -46.95436940	     -9.60429091	      8.81849795	      0.00000000	     13.70968322	     13.34664095	     11.89212342	    -15.84754813	     -0.14683569	    -15.14821429	      0.00000000	    -25.32666500	     -7.72617628	     -3.80381618
      9.11000000	      4.91731479	      6.77804180	      0.87124497	     -0.95392974	      0.87951652	      0.16526511	     -6.83641154	     -6.40079192	     -6.07578878	    -50.52986663	    -11.89773628	      7.94112340	      0.00000000	     12.97368772	     14.07323792	     12.20332729	    -15.81573052	      0.35263960	    -16.11960904	      0.00000000	    -25.31905292	     -8.28212844	     -3.82124675
